<?xml version="1.0" encoding="UTF-8"?>
<svg version="1.1" xmlns="http://www.w3.org/2000/svg" width="32" height="32">
<path d="M0 0 C3.625 0.25 3.625 0.25 5.5625 1.375 C7.09641734 4.08191295 6.87993833 6.19074001 6.625 9.25 C6.295 10.24 5.965 11.23 5.625 12.25 C5.625 13.24 5.625 14.23 5.625 15.25 C6.945 15.25 8.265 15.25 9.625 15.25 C9.625 16.24 9.625 17.23 9.625 18.25 C8.635 18.25 7.645 18.25 6.625 18.25 C6.295 20.89 5.965 23.53 5.625 26.25 C4.305 26.25 2.985 26.25 1.625 26.25 C0.965 28.23 0.305 30.21 -0.375 32.25 C-6.315 32.25 -12.255 32.25 -18.375 32.25 C-18.375 31.26 -18.375 30.27 -18.375 29.25 C-19.035 28.92 -19.695 28.59 -20.375 28.25 C-20.16875 27.54875 -19.9625 26.8475 -19.75 26.125 C-19.2024855 21.92738885 -20.78535622 18.74376424 -22.3125 14.875 C-22.41660042 10.50278252 -19.82602437 7.77708385 -17.375 4.25 C-13.745 4.58 -10.115 4.91 -6.375 5.25 C-5.715 3.93 -5.055 2.61 -4.375 1.25 C-3.375 0.25 -3.375 0.25 0 0 Z " fill="#658695" transform="translate(22.375,-0.25)"/>
<path d="M0 0 C3.625 0.25 3.625 0.25 5.5625 1.375 C7.09641734 4.08191295 6.87993833 6.19074001 6.625 9.25 C6.295 10.24 5.965 11.23 5.625 12.25 C5.625 13.24 5.625 14.23 5.625 15.25 C6.945 15.25 8.265 15.25 9.625 15.25 C9.625 16.24 9.625 17.23 9.625 18.25 C8.635 18.25 7.645 18.25 6.625 18.25 C6.295 20.89 5.965 23.53 5.625 26.25 C4.305 26.25 2.985 26.25 1.625 26.25 C0.965 28.23 0.305 30.21 -0.375 32.25 C-6.315 32.25 -12.255 32.25 -18.375 32.25 C-18.375 31.26 -18.375 30.27 -18.375 29.25 C-19.035 28.92 -19.695 28.59 -20.375 28.25 C-20.21 27.610625 -20.045 26.97125 -19.875 26.3125 C-19.31534504 22.88461336 -19.38975307 19.69887695 -19.53515625 16.23828125 C-19.375 14.25 -19.375 14.25 -17.375 12.25 C-17.375 12.91 -17.375 13.57 -17.375 14.25 C-16.055 14.25 -14.735 14.25 -13.375 14.25 C-13.705 14.91 -14.035 15.57 -14.375 16.25 C-15.695 15.92 -17.015 15.59 -18.375 15.25 C-18.29121094 15.94867188 -18.20742188 16.64734375 -18.12109375 17.3671875 C-17.96833984 18.73230469 -17.96833984 18.73230469 -17.8125 20.125 C-17.70808594 21.02992187 -17.60367187 21.93484375 -17.49609375 22.8671875 C-17.375 25.25 -17.375 25.25 -18.375 27.25 C-17.055 27.25 -15.735 27.25 -14.375 27.25 C-14.375 27.91 -14.375 28.57 -14.375 29.25 C-15.035 29.25 -15.695 29.25 -16.375 29.25 C-16.375 29.91 -16.375 30.57 -16.375 31.25 C-12.415 30.755 -12.415 30.755 -8.375 30.25 C-8.375 29.26 -8.375 28.27 -8.375 27.25 C-6.395 27.58 -4.415 27.91 -2.375 28.25 C-0.27267656 25.3815587 -0.27267656 25.3815587 0.625 22.25 C1.615 21.92 2.605 21.59 3.625 21.25 C2.305 20.92 0.985 20.59 -0.375 20.25 C-1.035 17.28 -1.695 14.31 -2.375 11.25 C-0.395 10.59 1.585 9.93 3.625 9.25 C3.66754356 7.25045254 3.66580783 5.24958364 3.625 3.25 C2.55854885 1.95366379 2.55854885 1.95366379 0.0625 2.1875 C-0.741875 2.208125 -1.54625 2.22875 -2.375 2.25 C-3.035 4.56 -3.695 6.87 -4.375 9.25 C-5.695 8.26 -7.015 7.27 -8.375 6.25 C-8.045 7.24 -7.715 8.23 -7.375 9.25 C-8.035 9.25 -8.695 9.25 -9.375 9.25 C-9.375 8.59 -9.375 7.93 -9.375 7.25 C-11.355 7.91 -13.335 8.57 -15.375 9.25 C-14.715 7.93 -14.055 6.61 -13.375 5.25 C-15.37208897 5.89234258 -15.37208897 5.89234258 -17.375 7.25 C-18.50391757 9.64459647 -18.50391757 9.64459647 -19.125 12.375 C-19.36734375 13.28507813 -19.6096875 14.19515625 -19.859375 15.1328125 C-20.02953125 15.83148438 -20.1996875 16.53015625 -20.375 17.25 C-21.035 16.92 -21.695 16.59 -22.375 16.25 C-21.89889341 11.25088076 -20.34337781 8.27167317 -17.375 4.25 C-13.745 4.58 -10.115 4.91 -6.375 5.25 C-5.715 3.93 -5.055 2.61 -4.375 1.25 C-3.375 0.25 -3.375 0.25 0 0 Z " fill="#485D6A" transform="translate(22.375,-0.25)"/>
<path d="M0 0 C2.5625 0.1875 2.5625 0.1875 4.5625 2.1875 C4.6875 5.3125 4.6875 5.3125 4.5625 8.1875 C2.5825 9.1775 0.6025 10.1675 -1.4375 11.1875 C-1.1075 13.8275 -0.7775 16.4675 -0.4375 19.1875 C1.2125 19.1875 2.8625 19.1875 4.5625 19.1875 C4.2325 19.8475 3.9025 20.5075 3.5625 21.1875 C2.5725 21.5175 1.5825 21.8475 0.5625 22.1875 C-0.02820014 24.13353274 -0.02820014 24.13353274 -0.4375 26.1875 C-2.4375 28.1875 -2.4375 28.1875 -5.0625 28.3125 C-5.84625 28.27125 -6.63 28.23 -7.4375 28.1875 C-6.7775 27.32125 -6.1175 26.455 -5.4375 25.5625 C-3.31054615 21.97326537 -3.04959028 20.26055202 -3.4375 16.1875 C-5.7475 15.5275 -8.0575 14.8675 -10.4375 14.1875 C-9.921875 13.81625 -9.40625 13.445 -8.875 13.0625 C-7.07430017 11.15576848 -7.07430017 11.15576848 -7.75 8 C-7.976875 7.071875 -8.20375 6.14375 -8.4375 5.1875 C-7.4475 5.5175 -6.4575 5.8475 -5.4375 6.1875 C-5.128125 5.383125 -4.81875 4.57875 -4.5 3.75 C-3.04215116 0.23401163 -3.04215116 0.23401163 0 0 Z " fill="#A8D2F7" transform="translate(22.4375,0.8125)"/>
<path d="M0 0 C0.99 0 1.98 0 3 0 C3 0.99 3 1.98 3 3 C4.32 2.67 5.64 2.34 7 2 C7 2.66 7 3.32 7 4 C7.99 4 8.98 4 10 4 C9.625 5.9375 9.625 5.9375 9 8 C8.01 8.495 8.01 8.495 7 9 C7.99 9.66 8.98 10.32 10 11 C8.865625 11.268125 7.73125 11.53625 6.5625 11.8125 C5.386875 12.204375 4.21125 12.59625 3 13 C2.67 13.99 2.34 14.98 2 16 C4.475 16.99 4.475 16.99 7 18 C7 18.33 7 18.66 7 19 C4.69 19 2.38 19 0 19 C-1.85776765 15.86501708 -2.20140476 13.62528568 -2 10 C-0.35 9.67 1.3 9.34 3 9 C1.35 9 -0.3 9 -2 9 C-2.66 10.32 -3.32 11.64 -4 13 C-4.34837335 8.12277312 -3.45094389 5.21562348 -1 1 C-0.67 0.67 -0.34 0.34 0 0 Z " fill="#57AFA6" transform="translate(6,5)"/>
<path d="M0 0 C3.625 0.25 3.625 0.25 5.5625 1.375 C7.83664225 5.3881922 6.63455803 9.95937837 5.625 14.25 C4.965 14.25 4.305 14.25 3.625 14.25 C3.295 13.59 2.965 12.93 2.625 12.25 C0.975 12.25 -0.675 12.25 -2.375 12.25 C-0.375 11.25 1.625 10.25 3.625 9.25 C3.66754356 7.25045254 3.66580783 5.24958364 3.625 3.25 C2.55854885 1.95366379 2.55854885 1.95366379 0.0625 2.1875 C-0.741875 2.208125 -1.54625 2.22875 -2.375 2.25 C-3.035 4.56 -3.695 6.87 -4.375 9.25 C-5.695 8.26 -7.015 7.27 -8.375 6.25 C-8.045 7.24 -7.715 8.23 -7.375 9.25 C-8.035 9.25 -8.695 9.25 -9.375 9.25 C-9.375 8.59 -9.375 7.93 -9.375 7.25 C-11.355 7.91 -13.335 8.57 -15.375 9.25 C-14.715 7.93 -14.055 6.61 -13.375 5.25 C-15.37208897 5.89234258 -15.37208897 5.89234258 -17.375 7.25 C-18.50391757 9.64459647 -18.50391757 9.64459647 -19.125 12.375 C-19.36734375 13.28507813 -19.6096875 14.19515625 -19.859375 15.1328125 C-20.02953125 15.83148438 -20.1996875 16.53015625 -20.375 17.25 C-21.035 16.92 -21.695 16.59 -22.375 16.25 C-21.89889341 11.25088076 -20.34337781 8.27167317 -17.375 4.25 C-13.745 4.58 -10.115 4.91 -6.375 5.25 C-5.715 3.93 -5.055 2.61 -4.375 1.25 C-3.375 0.25 -3.375 0.25 0 0 Z " fill="#405354" transform="translate(22.375,-0.25)"/>
<path d="M0 0 C2.5 0.25 2.5 0.25 4.5 2.25 C4.8125 5.25 4.8125 5.25 4.5 8.25 C1.0647952 10.54013653 -0.485331 10.42842973 -4.5 10.25 C-4.6953125 4.1953125 -4.6953125 4.1953125 -4.5 2.25 C-2.5 0.25 -2.5 0.25 0 0 Z " fill="#E9C458" transform="translate(22.5,0.75)"/>
<path d="M0 0 C0.33 0.66 0.66 1.32 1 2 C2.32 2 3.64 2 5 2 C4.67 2.66 4.34 3.32 4 4 C2.68 3.67 1.36 3.34 0 3 C0.08378906 3.69867188 0.16757813 4.39734375 0.25390625 5.1171875 C0.35574219 6.02726562 0.45757812 6.93734375 0.5625 7.875 C0.66691406 8.77992187 0.77132813 9.68484375 0.87890625 10.6171875 C1 13 1 13 0 15 C1.32 15 2.64 15 4 15 C4 15.66 4 16.32 4 17 C3.34 17 2.68 17 2 17 C2 17.66 2 18.32 2 19 C5.96 18.505 5.96 18.505 10 18 C10 17.01 10 16.02 10 15 C10.9075 15.185625 11.815 15.37125 12.75 15.5625 C15.68314324 15.95734621 17.2644657 15.94691572 20 15 C19.01 17.475 19.01 17.475 18 20 C12.06 20 6.12 20 0 20 C0 19.01 0 18.02 0 17 C-0.66 16.67 -1.32 16.34 -2 16 C-1.7525 15.0409375 -1.7525 15.0409375 -1.5 14.0625 C-0.94206741 10.64516291 -0.96966178 7.44070273 -1.0625 3.98828125 C-1 2 -1 2 0 0 Z " fill="#324451" transform="translate(4,12)"/>
<path d="M0 0 C2.97 0 5.94 0 9 0 C8.01 0.33 7.02 0.66 6 1 C6 1.99 6 2.98 6 4 C7.98 4 9.96 4 12 4 C12 4.33 12 4.66 12 5 C7.38 5 2.76 5 -2 5 C-2 4.34 -2 3.68 -2 3 C-1.34 3 -0.68 3 0 3 C0 2.01 0 1.02 0 0 Z " fill="#839BAA" transform="translate(8,26)"/>
<path d="M0 0 C1.32 0 2.64 0 4 0 C4 1.98 4 3.96 4 6 C6.475 6.99 6.475 6.99 9 8 C9 8.33 9 8.66 9 9 C6.69 9 4.38 9 2 9 C0.14223235 5.86501708 -0.20140476 3.62528568 0 0 Z " fill="#A4CDF1" transform="translate(4,15)"/>
<path d="M0 0 C0.66 0.66 1.32 1.32 2 2 C1.61121812 5.01305957 0.73543126 6.39685311 -1 9 C-4.0390625 9.29296875 -4.0390625 9.29296875 -7.625 9.1875 C-8.81351563 9.16042969 -10.00203125 9.13335937 -11.2265625 9.10546875 C-12.14179688 9.07066406 -13.05703125 9.03585938 -14 9 C-13.34 7.68 -12.68 6.36 -12 5 C-12 5.66 -12 6.32 -12 7 C-6.555 6.01 -6.555 6.01 -1 5 C-0.67 3.35 -0.34 1.7 0 0 Z " fill="#50727C" transform="translate(18,18)"/>
<path d="M0 0 C0.99 0 1.98 0 3 0 C2.1875 2.9375 2.1875 2.9375 1 6 C0.01 6.33 -0.98 6.66 -2 7 C-2.33 8.98 -2.66 10.96 -3 13 C-3.33 13 -3.66 13 -4 13 C-4.34837335 8.12277312 -3.45094389 5.21562348 -1 1 C-0.67 0.67 -0.34 0.34 0 0 Z " fill="#748F9C" transform="translate(6,5)"/>
<path d="M0 0 C0.9075 0.12375 1.815 0.2475 2.75 0.375 C2.75 0.705 2.75 1.035 2.75 1.375 C1.3578125 1.560625 1.3578125 1.560625 -0.0625 1.75 C-3.38885418 3.02761901 -3.38885418 3.02761901 -4.31640625 5.734375 C-5.05751279 8.26917419 -5.70650208 10.79100113 -6.25 13.375 C-6.91 13.045 -7.57 12.715 -8.25 12.375 C-7.70258056 6.62709584 -6.43812109 0.74286013 0 0 Z " fill="#32424C" transform="translate(8.25,3.625)"/>
<path d="M0 0 C0.66 0.33 1.32 0.66 2 1 C1.34 2.98 0.68 4.96 0 7 C-0.99 7 -1.98 7 -3 7 C-3 6.34 -3 5.68 -3 5 C-3.66 4.67 -4.32 4.34 -5 4 C-3.35 2.68 -1.7 1.36 0 0 Z " fill="#59C6B4" transform="translate(17,17)"/>
<path d="M0 0 C2.31 0 4.62 0 7 0 C6.67 0.99 6.34 1.98 6 3 C5.01 3.33 4.02 3.66 3 4 C3 3.34 3 2.68 3 2 C1.35 2.66 -0.3 3.32 -2 4 C-1.34 2.68 -0.68 1.36 0 0 Z " fill="#49626C" transform="translate(10,16)"/>
<path d="M0 0 C0.33 0.99 0.66 1.98 1 3 C1.66 3.33 2.32 3.66 3 4 C1.35 4.66 -0.3 5.32 -2 6 C-2.66 4.35 -3.32 2.7 -4 1 C-2.68 0.67 -1.36 0.34 0 0 Z " fill="#56C0AF" transform="translate(25,11)"/>
<path d="M0 0 C0.33 1.32 0.66 2.64 1 4 C0.01 4 -0.98 4 -2 4 C-2 4.66 -2 5.32 -2 6 C-2.66 5.67 -3.32 5.34 -4 5 C-3.6875 3.0625 -3.6875 3.0625 -3 1 C-2.01 0.67 -1.02 0.34 0 0 Z " fill="#5C7383" transform="translate(26,21)"/>
<path d="M0 0 C1.65 0 3.3 0 5 0 C4.67 1.32 4.34 2.64 4 4 C2.02 4 0.04 4 -2 4 C-1.33333333 2.66666667 -0.66666667 1.33333333 0 0 Z " fill="#A19257" transform="translate(20,7)"/>
<path d="M0 0 C0.33 0.66 0.66 1.32 1 2 C1.99 1.67 2.98 1.34 4 1 C4.33 1.66 4.66 2.32 5 3 C3.68 3 2.36 3 1 3 C1 3.66 1 4.32 1 5 C1.66 5.33 2.32 5.66 3 6 C1.68 5.67 0.36 5.34 -1 5 C-0.67 3.35 -0.34 1.7 0 0 Z " fill="#FBD159" transform="translate(19,4)"/>
<path d="M0 0 C1.32 0 2.64 0 4 0 C4 0.99 4 1.98 4 3 C2.68 3 1.36 3 0 3 C0 2.01 0 1.02 0 0 Z " fill="#384955" transform="translate(9,0)"/>
</svg>
